<?xml version="1.0" encoding="UTF-8"?>
<svg id="_レイヤー_1" data-name="レイヤー 1" xmlns="http://www.w3.org/2000/svg" xmlns:xlink="http://www.w3.org/1999/xlink" viewBox="0 0 48 48">
  <defs>
    <style>
      .cls-1, .cls-2 {
        fill: none;
      }

      .cls-2 {
        stroke: #fff;
        stroke-miterlimit: 10;
        stroke-width: 16px;
      }

      .cls-3 {
        clip-path: url(#clippath-1);
      }

      .cls-4 {
        fill: #878787;
      }

      .cls-5 {
        clip-path: url(#clippath);
      }
    </style>
    <clipPath id="clippath">
      <path class="cls-1" d="M323.28-50.58h-146.57c-74.17,0-129.29-50.12-129.29-124.29,0,0-2-146.34-2-195.13s2-195.13,2-195.13c0-74.17,55.12-124.29,129.29-124.29h146.57c74.17,0,129.29,50.12,129.29,124.29,0,0,2,146.34,2,195.13s-2,195.13-2,195.13c0,74.17-55.12,124.29-129.29,124.29Z"/>
    </clipPath>
    <clipPath id="clippath-1">
      <path class="cls-2" d="M323.28-50.58h-146.57c-74.17,0-129.29-50.12-129.29-124.29,0,0-2-146.34-2-195.13s2-195.13,2-195.13c0-74.17,55.12-124.29,129.29-124.29h146.57c74.17,0,129.29,50.12,129.29,124.29,0,0,2,146.34,2,195.13s-2,195.13-2,195.13c0,74.17-55.12,124.29-129.29,124.29Z"/>
    </clipPath>
  </defs>
  <g>
    <g class="cls-5">
      <image width="1024" height="1024" transform="translate(709.1 -833.95) rotate(90) scale(.91)" xlink:href="../my-bento-1-1770471675230.jpg"/>
    </g>
    <g>
      <g class="cls-3">
        <image width="1024" height="1024" transform="translate(750.23 -861.08) rotate(90) scale(.97)" xlink:href="../my-bento-1-1770649763786.jpg"/>
      </g>
      <path class="cls-2" d="M323.28-50.58h-146.57c-74.17,0-129.29-50.12-129.29-124.29,0,0-2-146.34-2-195.13s2-195.13,2-195.13c0-74.17,55.12-124.29,129.29-124.29h146.57c74.17,0,129.29,50.12,129.29,124.29,0,0,2,146.34,2,195.13s-2,195.13-2,195.13c0,74.17-55.12,124.29-129.29,124.29Z"/>
    </g>
  </g>
  <path class="cls-4" d="M36,13c2.76,0,5,2.24,5,5v12c0,2.76-2.24,5-5,5H12c-2.76,0-5-2.24-5-5v-12c0-2.76,2.24-5,5-5h24M36,10H12c-4.42,0-8,3.58-8,8v12c0,4.42,3.58,8,8,8h24c4.42,0,8-3.58,8-8v-12c0-4.42-3.58-8-8-8h0Z"/>
  <circle class="cls-4" cx="13" cy="19" r="3"/>
  <circle class="cls-4" cx="24" cy="19" r="3"/>
  <circle class="cls-4" cx="35" cy="19" r="3"/>
  <circle class="cls-4" cx="13" cy="29" r="3"/>
  <circle class="cls-4" cx="24" cy="29" r="3"/>
  <circle class="cls-4" cx="35" cy="29" r="3"/>
</svg>