<?xml version="1.0" encoding="UTF-8"?>
<svg id="_レイヤー_1" data-name="レイヤー 1" xmlns="http://www.w3.org/2000/svg" viewBox="0 0 48 48">
  <defs>
    <style>
      .cls-1 {
        fill: #878787;
      }
    </style>
  </defs>
  <path class="cls-1" d="M36,13c2.76,0,5,2.24,5,5v12c0,2.76-2.24,5-5,5H12c-2.76,0-5-2.24-5-5v-12c0-2.76,2.24-5,5-5h24M36,10H12c-4.42,0-8,3.58-8,8v12c0,4.42,3.58,8,8,8h24c4.42,0,8-3.58,8-8v-12c0-4.42-3.58-8-8-8h0Z"/>
  <path class="cls-1" d="M23.48,25.63l-.16-3.82h.86c.33,0,.63-.06.88-.18.25-.12.45-.29.58-.51.13-.22.2-.48.2-.77s-.07-.57-.2-.78c-.13-.21-.32-.38-.55-.5-.23-.12-.52-.18-.85-.18-.48,0-.92.15-1.33.44-.41.29-.74.69-.99,1.18l-1.98-1.86c.4-.79.98-1.42,1.74-1.91s1.67-.73,2.72-.73c.88,0,1.65.18,2.31.54.66.36,1.18.85,1.55,1.47.37.62.56,1.32.56,2.09s-.16,1.48-.47,2.03c-.31.55-.75,1.01-1.3,1.37-.55.36-1.18.61-1.87.74l.92-1.18-.2,2.56h-2.42ZM24.7,30.97c-.53,0-.97-.18-1.32-.54-.35-.36-.52-.79-.52-1.3,0-.53.17-.98.52-1.33.35-.35.79-.53,1.32-.53s.97.18,1.31.53c.34.35.51.8.51,1.33s-.17.94-.51,1.3c-.34.36-.78.54-1.31.54Z"/>
</svg>