<?xml version="1.0" encoding="UTF-8"?>
<svg id="_レイヤー_1" data-name="レイヤー 1" xmlns="http://www.w3.org/2000/svg" viewBox="0 0 48 48">
  <defs>
    <style>
      .cls-1 {
        fill: #878787;
      }

      .cls-2 {
        fill: none;
        stroke: #878787;
        stroke-miterlimit: 10;
        stroke-width: 3px;
      }
    </style>
  </defs>
  <path class="cls-1" d="M36,13c2.76,0,5,2.24,5,5v12c0,2.76-2.24,5-5,5H12c-2.76,0-5-2.24-5-5v-12c0-2.76,2.24-5,5-5h24M36,10H12c-4.42,0-8,3.58-8,8v12c0,4.42,3.58,8,8,8h24c4.42,0,8-3.58,8-8v-12c0-4.42-3.58-8-8-8h0Z"/>
  <line class="cls-2" x1="28.5" y1="11.5" x2="28.5" y2="36.5"/>
  <line class="cls-2" x1="42.5" y1="26.5" x2="28.5" y2="26.5"/>
</svg>